{
	"asset":{
		"generator":"Khronos glTF Blender I/O v4.1.63",
		"version":"2.0"
	},
	"scene":0,
	"scenes":[
		{
			"name":"Scene",
			"nodes":[
				9
			]
		}
	],
	"nodes":[
		{
			"mesh":0,
			"name":"Separator",
			"translation":[
				0.04679110273718834,
				0.034674111753702164,
				0.0013501867651939392
			]
		},
		{
			"mesh":1,
			"name":"Separator.001",
			"translation":[
				-0.004979461431503296,
				0.03410745784640312,
				0.0014136291574686766
			]
		},
		{
			"mesh":2,
			"name":"Separator.002",
			"translation":[
				-0.047429122030735016,
				0.034107424318790436,
				0.0009734556078910828
			]
		},
		{
			"mesh":3,
			"name":"Separator.003",
			"translation":[
				0.04297823831439018,
				0.03449980542063713,
				0.0006049200892448425
			]
		},
		{
			"mesh":4,
			"name":"Separator.004",
			"translation":[
				0.04812853783369064,
				0.03577737882733345,
				0.0014380738139152527
			]
		},
		{
			"mesh":5,
			"name":"Separator.005",
			"translation":[
				0.051598966121673584,
				0.03397589549422264,
				0.0009734928607940674
			]
		},
		{
			"mesh":6,
			"name":"Separator.006",
			"translation":[
				0.034687019884586334,
				0.03402726352214813,
				0.0008872300386428833
			]
		},
		{
			"mesh":7,
			"name":"Separator.007",
			"translation":[
				0.03936190903186798,
				0.034385230392217636,
				0.0009734481573104858
			]
		},
		{
			"children":[
				0,
				1,
				2,
				3,
				4,
				5,
				6,
				7
			],
			"name":"Node1"
		},
		{
			"children":[
				8
			],
			"name":"Node0",
			"scale":[
				100,
				100,
				100
			]
		}
	],
	"materials":[
		{
			"doubleSided":true,
			"name":"z0",
			"pbrMetallicRoughness":{
				"baseColorFactor":[
					0.7529410123825073,
					0.7529410123825073,
					0.7529410123825073,
					1
				],
				"metallicFactor":0.7529410123825073,
				"roughnessFactor":0.6875
			}
		},
		{
			"alphaMode":"BLEND",
			"doubleSided":true,
			"name":"z1",
			"pbrMetallicRoughness":{
				"baseColorFactor":[
					1,
					1,
					1,
					0.5
				],
				"metallicFactor":0.5,
				"roughnessFactor":0.6875
			}
		},
		{
			"doubleSided":true,
			"name":"z2",
			"pbrMetallicRoughness":{
				"baseColorFactor":[
					0,
					0.564706027507782,
					0.5529410243034363,
					1
				],
				"metallicFactor":0.1862746626138687,
				"roughnessFactor":0.6875
			}
		},
		{
			"doubleSided":true,
			"name":"z3",
			"pbrMetallicRoughness":{
				"baseColorFactor":[
					0.792156994342804,
					0.8196079730987549,
					0.9333329796791077,
					1
				],
				"metallicFactor":0.4241830110549927,
				"roughnessFactor":0.6875
			}
		},
		{
			"doubleSided":true,
			"name":"z4",
			"pbrMetallicRoughness":{
				"baseColorFactor":[
					0.5019609928131104,
					0.5019609928131104,
					0.5019609928131104,
					1
				],
				"metallicFactor":0.5019609928131104,
				"roughnessFactor":0.6875
			}
		},
		{
			"doubleSided":true,
			"name":"z5",
			"pbrMetallicRoughness":{
				"baseColorFactor":[
					0.2980389893054962,
					0.2980389893054962,
					0.2980389893054962,
					1
				],
				"metallicFactor":0.1490200012922287,
				"roughnessFactor":0.6875
			}
		},
		{
			"alphaMode":"BLEND",
			"doubleSided":true,
			"name":"z6",
			"pbrMetallicRoughness":{
				"baseColorFactor":[
					1,
					1,
					1,
					0.5
				],
				"metallicFactor":0.5,
				"roughnessFactor":0.6875
			}
		},
		{
			"alphaMode":"BLEND",
			"doubleSided":true,
			"name":"z7",
			"pbrMetallicRoughness":{
				"baseColorFactor":[
					1,
					1,
					1,
					0.5
				],
				"metallicFactor":0.5,
				"roughnessFactor":0.6875
			}
		}
	],
	"meshes":[
		{
			"name":"Mesh0",
			"primitives":[
				{
					"attributes":{
						"POSITION":0,
						"NORMAL":1
					},
					"indices":2,
					"material":0
				}
			]
		},
		{
			"name":"Mesh0.001",
			"primitives":[
				{
					"attributes":{
						"POSITION":3,
						"NORMAL":4
					},
					"indices":5,
					"material":1
				}
			]
		},
		{
			"name":"Mesh0.002",
			"primitives":[
				{
					"attributes":{
						"POSITION":6,
						"NORMAL":7
					},
					"indices":8,
					"material":2
				}
			]
		},
		{
			"name":"Mesh0.003",
			"primitives":[
				{
					"attributes":{
						"POSITION":9,
						"NORMAL":10
					},
					"indices":11,
					"material":3
				}
			]
		},
		{
			"name":"Mesh0.004",
			"primitives":[
				{
					"attributes":{
						"POSITION":12,
						"NORMAL":13
					},
					"indices":14,
					"material":4
				}
			]
		},
		{
			"name":"Mesh0.005",
			"primitives":[
				{
					"attributes":{
						"POSITION":15,
						"NORMAL":16
					},
					"indices":17,
					"material":5
				}
			]
		},
		{
			"name":"Mesh0.006",
			"primitives":[
				{
					"attributes":{
						"POSITION":18,
						"NORMAL":19
					},
					"indices":20,
					"material":6
				}
			]
		},
		{
			"name":"Mesh0.007",
			"primitives":[
				{
					"attributes":{
						"POSITION":21,
						"NORMAL":22
					},
					"indices":23,
					"material":7
				}
			]
		}
	],
	"accessors":[
		{
			"bufferView":0,
			"componentType":5126,
			"count":32247,
			"max":[
				0.004714451730251312,
				0.033001888543367386,
				0.03462287783622742
			],
			"min":[
				-0.0052855536341667175,
				-0.034135110676288605,
				-0.03537712246179581
			],
			"type":"VEC3"
		},
		{
			"bufferView":1,
			"componentType":5126,
			"count":32247,
			"type":"VEC3"
		},
		{
			"bufferView":2,
			"componentType":5123,
			"count":35106,
			"type":"SCALAR"
		},
		{
			"bufferView":3,
			"componentType":5126,
			"count":368,
			"max":[
				0.04000001773238182,
				0.020487545058131218,
				0.020059436559677124
			],
			"min":[
				-0.039999984204769135,
				-0.020487455651164055,
				-0.020940564572811127
			],
			"type":"VEC3"
		},
		{
			"bufferView":4,
			"componentType":5126,
			"count":368,
			"type":"VEC3"
		},
		{
			"bufferView":5,
			"componentType":5123,
			"count":1104,
			"type":"SCALAR"
		},
		{
			"bufferView":6,
			"componentType":5126,
			"count":1002,
			"max":[
				0.0024496763944625854,
				0.021972574293613434,
				0.021966606378555298
			],
			"min":[
				-0.0024493224918842316,
				-0.02197842299938202,
				-0.021980389952659607
			],
			"type":"VEC3"
		},
		{
			"bufferView":7,
			"componentType":5126,
			"count":1002,
			"type":"VEC3"
		},
		{
			"bufferView":8,
			"componentType":5123,
			"count":6012,
			"type":"SCALAR"
		},
		{
			"bufferView":9,
			"componentType":5126,
			"count":11300,
			"max":[
				0.008527319878339767,
				0.031599197536706924,
				0.0323251411318779
			],
			"min":[
				-0.008972682058811188,
				-0.032370805740356445,
				-0.031630855053663254
			],
			"type":"VEC3"
		},
		{
			"bufferView":10,
			"componentType":5126,
			"count":11300,
			"type":"VEC3"
		},
		{
			"bufferView":11,
			"componentType":5123,
			"count":41556,
			"type":"SCALAR"
		},
		{
			"bufferView":12,
			"componentType":5126,
			"count":26362,
			"max":[
				0.004377014935016632,
				0.03571862354874611,
				0.03153499215841293
			],
			"min":[
				-0.004622984677553177,
				-0.0390583798289299,
				-0.03246501088142395
			],
			"type":"VEC3"
		},
		{
			"bufferView":13,
			"componentType":5126,
			"count":26362,
			"type":"VEC3"
		},
		{
			"bufferView":14,
			"componentType":5123,
			"count":27954,
			"type":"SCALAR"
		},
		{
			"bufferView":15,
			"componentType":5126,
			"count":736,
			"max":[
				0.0038935914635658264,
				0.03863110765814781,
				0.038491569459438324
			],
			"min":[
				-0.01760641112923622,
				-0.03836889564990997,
				-0.03849142789840698
			],
			"type":"VEC3"
		},
		{
			"bufferView":16,
			"componentType":5126,
			"count":736,
			"type":"VEC3"
		},
		{
			"bufferView":17,
			"componentType":5123,
			"count":4404,
			"type":"SCALAR"
		},
		{
			"bufferView":18,
			"componentType":5126,
			"count":1018,
			"max":[
				0.004318535327911377,
				0.050094738602638245,
				0.06007983535528183
			],
			"min":[
				-0.0016814656555652618,
				-0.04993826150894165,
				-0.059896163642406464
			],
			"type":"VEC3"
		},
		{
			"bufferView":19,
			"componentType":5126,
			"count":1018,
			"type":"VEC3"
		},
		{
			"bufferView":20,
			"componentType":5123,
			"count":4368,
			"type":"SCALAR"
		},
		{
			"bufferView":21,
			"componentType":5126,
			"count":1048,
			"max":[
				0.00034964457154273987,
				0.029573768377304077,
				0.02983861416578293
			],
			"min":[
				-0.0003563538193702698,
				-0.030129235237836838,
				-0.029838383197784424
			],
			"type":"VEC3"
		},
		{
			"bufferView":22,
			"componentType":5126,
			"count":1048,
			"type":"VEC3"
		},
		{
			"bufferView":23,
			"componentType":5123,
			"count":1260,
			"type":"SCALAR"
		}
	],
	"bufferViews":[
		{
			"buffer":0,
			"byteLength":386964,
			"byteOffset":0,
			"target":34962
		},
		{
			"buffer":0,
			"byteLength":386964,
			"byteOffset":386964,
			"target":34962
		},
		{
			"buffer":0,
			"byteLength":70212,
			"byteOffset":773928,
			"target":34963
		},
		{
			"buffer":0,
			"byteLength":4416,
			"byteOffset":844140,
			"target":34962
		},
		{
			"buffer":0,
			"byteLength":4416,
			"byteOffset":848556,
			"target":34962
		},
		{
			"buffer":0,
			"byteLength":2208,
			"byteOffset":852972,
			"target":34963
		},
		{
			"buffer":0,
			"byteLength":12024,
			"byteOffset":855180,
			"target":34962
		},
		{
			"buffer":0,
			"byteLength":12024,
			"byteOffset":867204,
			"target":34962
		},
		{
			"buffer":0,
			"byteLength":12024,
			"byteOffset":879228,
			"target":34963
		},
		{
			"buffer":0,
			"byteLength":135600,
			"byteOffset":891252,
			"target":34962
		},
		{
			"buffer":0,
			"byteLength":135600,
			"byteOffset":1026852,
			"target":34962
		},
		{
			"buffer":0,
			"byteLength":83112,
			"byteOffset":1162452,
			"target":34963
		},
		{
			"buffer":0,
			"byteLength":316344,
			"byteOffset":1245564,
			"target":34962
		},
		{
			"buffer":0,
			"byteLength":316344,
			"byteOffset":1561908,
			"target":34962
		},
		{
			"buffer":0,
			"byteLength":55908,
			"byteOffset":1878252,
			"target":34963
		},
		{
			"buffer":0,
			"byteLength":8832,
			"byteOffset":1934160,
			"target":34962
		},
		{
			"buffer":0,
			"byteLength":8832,
			"byteOffset":1942992,
			"target":34962
		},
		{
			"buffer":0,
			"byteLength":8808,
			"byteOffset":1951824,
			"target":34963
		},
		{
			"buffer":0,
			"byteLength":12216,
			"byteOffset":1960632,
			"target":34962
		},
		{
			"buffer":0,
			"byteLength":12216,
			"byteOffset":1972848,
			"target":34962
		},
		{
			"buffer":0,
			"byteLength":8736,
			"byteOffset":1985064,
			"target":34963
		},
		{
			"buffer":0,
			"byteLength":12576,
			"byteOffset":1993800,
			"target":34962
		},
		{
			"buffer":0,
			"byteLength":12576,
			"byteOffset":2006376,
			"target":34962
		},
		{
			"buffer":0,
			"byteLength":2520,
			"byteOffset":2018952,
			"target":34963
		}
	],
	"buffers":[
		{
			"byteLength":2021472,
			"uri":"continent_collapsed_smoothed.bin"
		}
	]
}
