{
	"asset":{
		"generator":"Khronos glTF Blender I/O v4.1.63",
		"version":"2.0"
	},
	"scene":0,
	"scenes":[
		{
			"name":"Scene",
			"nodes":[
				9
			]
		}
	],
	"nodes":[
		{
			"mesh":0,
			"name":"Separator",
			"translation":[
				-0.004948094487190247,
				0,
				-0.003161884844303131
			]
		},
		{
			"mesh":1,
			"name":"Separator.001",
			"translation":[
				-0.004948094487190247,
				0,
				-0.003161884844303131
			]
		},
		{
			"mesh":2,
			"name":"Separator.002",
			"translation":[
				-0.004948094487190247,
				0,
				-0.003161884844303131
			]
		},
		{
			"mesh":3,
			"name":"Separator.003",
			"translation":[
				-0.004948094487190247,
				0,
				-0.003161884844303131
			]
		},
		{
			"mesh":4,
			"name":"Separator.004",
			"translation":[
				-0.004948094487190247,
				0,
				0.006838113069534302
			]
		},
		{
			"mesh":5,
			"name":"Separator.005",
			"translation":[
				-0.004948094487190247,
				0,
				0.006838113069534302
			]
		},
		{
			"mesh":6,
			"name":"Separator.006",
			"translation":[
				-0.004948094487190247,
				0,
				0.006838113069534302
			]
		},
		{
			"mesh":7,
			"name":"Separator.007",
			"translation":[
				-0.004948094487190247,
				0,
				-0.003161884844303131
			]
		},
		{
			"children":[
				0,
				1,
				2,
				3,
				4,
				5,
				6,
				7
			],
			"name":"Node1",
			"translation":[
				-0.00494808703660965,
				0,
				-0.0031618885695934296
			]
		},
		{
			"children":[
				8
			],
			"name":"Node0",
			"scale":[
				100,
				100,
				100
			],
			"translation":[
				-9,
				0,
				-6
			]
		}
	],
	"materials":[
		{
			"doubleSided":true,
			"name":"z0",
			"pbrMetallicRoughness":{
				"baseColorFactor":[
					0.792156994342804,
					0.8196079730987549,
					0.9333329796791077,
					1
				],
				"metallicFactor":0.4241830110549927,
				"roughnessFactor":0.6875
			}
		},
		{
			"doubleSided":true,
			"name":"z1",
			"pbrMetallicRoughness":{
				"baseColorFactor":[
					0.5019609928131104,
					0.5019609928131104,
					0.5019609928131104,
					1
				],
				"metallicFactor":0.5019609928131104,
				"roughnessFactor":0.6875
			}
		},
		{
			"doubleSided":true,
			"name":"z2",
			"pbrMetallicRoughness":{
				"baseColorFactor":[
					0.7529410123825073,
					0.7529410123825073,
					0.7529410123825073,
					1
				],
				"metallicFactor":0.7529410123825073,
				"roughnessFactor":0.6875
			}
		},
		{
			"doubleSided":true,
			"name":"z3",
			"pbrMetallicRoughness":{
				"baseColorFactor":[
					0.2980389893054962,
					0.2980389893054962,
					0.2980389893054962,
					1
				],
				"metallicFactor":0.1490200012922287,
				"roughnessFactor":0.6875
			}
		},
		{
			"alphaMode":"BLEND",
			"doubleSided":true,
			"name":"z4",
			"pbrMetallicRoughness":{
				"baseColorFactor":[
					1,
					1,
					1,
					0.5
				],
				"metallicFactor":0.5,
				"roughnessFactor":0.6875
			}
		},
		{
			"doubleSided":true,
			"name":"z5",
			"pbrMetallicRoughness":{
				"baseColorFactor":[
					0,
					0.564706027507782,
					0.5529410243034363,
					1
				],
				"metallicFactor":0.1862746626138687,
				"roughnessFactor":0.6875
			}
		},
		{
			"alphaMode":"BLEND",
			"doubleSided":true,
			"name":"z6",
			"pbrMetallicRoughness":{
				"baseColorFactor":[
					1,
					1,
					1,
					0.5
				],
				"metallicFactor":0.5,
				"roughnessFactor":0.6875
			}
		},
		{
			"alphaMode":"BLEND",
			"doubleSided":true,
			"name":"z7",
			"pbrMetallicRoughness":{
				"baseColorFactor":[
					1,
					1,
					1,
					0.5
				],
				"metallicFactor":0.5,
				"roughnessFactor":0.6875
			}
		}
	],
	"meshes":[
		{
			"name":"Mesh0",
			"primitives":[
				{
					"attributes":{
						"POSITION":0,
						"NORMAL":1
					},
					"indices":2,
					"material":0
				}
			]
		},
		{
			"name":"Mesh0.001",
			"primitives":[
				{
					"attributes":{
						"POSITION":3,
						"NORMAL":4
					},
					"indices":5,
					"material":1
				}
			]
		},
		{
			"name":"Mesh0.002",
			"primitives":[
				{
					"attributes":{
						"POSITION":6,
						"NORMAL":7
					},
					"indices":8,
					"material":2
				}
			]
		},
		{
			"name":"Mesh0.003",
			"primitives":[
				{
					"attributes":{
						"POSITION":9,
						"NORMAL":10
					},
					"indices":11,
					"material":3
				}
			]
		},
		{
			"name":"Mesh0.004",
			"primitives":[
				{
					"attributes":{
						"POSITION":12,
						"NORMAL":13
					},
					"indices":14,
					"material":4
				}
			]
		},
		{
			"name":"Mesh0.005",
			"primitives":[
				{
					"attributes":{
						"POSITION":15,
						"NORMAL":16
					},
					"indices":17,
					"material":5
				}
			]
		},
		{
			"name":"Mesh0.006",
			"primitives":[
				{
					"attributes":{
						"POSITION":18,
						"NORMAL":19
					},
					"indices":20,
					"material":6
				}
			]
		},
		{
			"name":"Mesh0.007",
			"primitives":[
				{
					"attributes":{
						"POSITION":21,
						"NORMAL":22
					},
					"indices":23,
					"material":7
				}
			]
		}
	],
	"accessors":[
		{
			"bufferView":0,
			"componentType":5126,
			"count":11051,
			"max":[
				0.09111300110816956,
				0.06163699924945831,
				0.0872649997472763
			],
			"min":[
				0.0736130028963089,
				-0.0023189999628812075,
				0.023295000195503235
			],
			"type":"VEC3"
		},
		{
			"bufferView":1,
			"componentType":5126,
			"count":11051,
			"type":"VEC3"
		},
		{
			"bufferView":2,
			"componentType":5123,
			"count":40290,
			"type":"SCALAR"
		},
		{
			"bufferView":3,
			"componentType":5126,
			"count":8580,
			"max":[
				0.1483290046453476,
				0.06321000307798386,
				0.08728600293397903
			],
			"min":[
				0.1393290013074875,
				-0.003936000168323517,
				0.02328599989414215
			],
			"type":"VEC3"
		},
		{
			"bufferView":4,
			"componentType":5126,
			"count":8580,
			"type":"VEC3"
		},
		{
			"bufferView":5,
			"componentType":5123,
			"count":28026,
			"type":"SCALAR"
		},
		{
			"bufferView":6,
			"componentType":5126,
			"count":10610,
			"max":[
				0.12041699886322021,
				0.06415999680757523,
				0.08998099714517593
			],
			"min":[
				0.11041700094938278,
				-0.0048859999515116215,
				0.02059200033545494
			],
			"type":"VEC3"
		},
		{
			"bufferView":7,
			"componentType":5126,
			"count":10610,
			"type":"VEC3"
		},
		{
			"bufferView":8,
			"componentType":5123,
			"count":34896,
			"type":"SCALAR"
		},
		{
			"bufferView":9,
			"componentType":5126,
			"count":894,
			"max":[
				0.19240400195121765,
				0.06812799721956253,
				0.09375400096178055
			],
			"min":[
				0.1709039956331253,
				-0.008856000378727913,
				0.0167859997600317
			],
			"type":"VEC3"
		},
		{
			"bufferView":10,
			"componentType":5126,
			"count":894,
			"type":"VEC3"
		},
		{
			"bufferView":11,
			"componentType":5123,
			"count":4404,
			"type":"SCALAR"
		},
		{
			"bufferView":12,
			"componentType":5126,
			"count":368,
			"max":[
				0.04346799850463867,
				0.053387999534606934,
				0.07106299698352814
			],
			"min":[
				-0.036531999707221985,
				0.012412999756634235,
				0.030062999576330185
			],
			"type":"VEC3"
		},
		{
			"bufferView":13,
			"componentType":5126,
			"count":368,
			"type":"VEC3"
		},
		{
			"bufferView":14,
			"componentType":5123,
			"count":1104,
			"type":"SCALAR"
		},
		{
			"bufferView":15,
			"componentType":5126,
			"count":1002,
			"max":[
				-0.036531999707221985,
				0.05487300083041191,
				0.07252900302410126
			],
			"min":[
				-0.0414309985935688,
				0.01092199981212616,
				0.028582999482750893
			],
			"type":"VEC3"
		},
		{
			"bufferView":16,
			"componentType":5126,
			"count":1002,
			"type":"VEC3"
		},
		{
			"bufferView":17,
			"componentType":5123,
			"count":6012,
			"type":"SCALAR"
		},
		{
			"bufferView":18,
			"componentType":5126,
			"count":1018,
			"max":[
				0.04783400148153305,
				0.08291900157928467,
				0.11054500192403793
			],
			"min":[
				0.04183400049805641,
				-0.017114000394940376,
				-0.009430999867618084
			],
			"type":"VEC3"
		},
		{
			"bufferView":19,
			"componentType":5126,
			"count":1018,
			"type":"VEC3"
		},
		{
			"bufferView":20,
			"componentType":5123,
			"count":4368,
			"type":"SCALAR"
		},
		{
			"bufferView":21,
			"componentType":5126,
			"count":1048,
			"max":[
				0.04853999987244606,
				0.06275200098752975,
				0.08040100336074829
			],
			"min":[
				0.04783400148153305,
				0.00304899993352592,
				0.02072400040924549
			],
			"type":"VEC3"
		},
		{
			"bufferView":22,
			"componentType":5126,
			"count":1048,
			"type":"VEC3"
		},
		{
			"bufferView":23,
			"componentType":5123,
			"count":1260,
			"type":"SCALAR"
		}
	],
	"bufferViews":[
		{
			"buffer":0,
			"byteLength":132612,
			"byteOffset":0,
			"target":34962
		},
		{
			"buffer":0,
			"byteLength":132612,
			"byteOffset":132612,
			"target":34962
		},
		{
			"buffer":0,
			"byteLength":80580,
			"byteOffset":265224,
			"target":34963
		},
		{
			"buffer":0,
			"byteLength":102960,
			"byteOffset":345804,
			"target":34962
		},
		{
			"buffer":0,
			"byteLength":102960,
			"byteOffset":448764,
			"target":34962
		},
		{
			"buffer":0,
			"byteLength":56052,
			"byteOffset":551724,
			"target":34963
		},
		{
			"buffer":0,
			"byteLength":127320,
			"byteOffset":607776,
			"target":34962
		},
		{
			"buffer":0,
			"byteLength":127320,
			"byteOffset":735096,
			"target":34962
		},
		{
			"buffer":0,
			"byteLength":69792,
			"byteOffset":862416,
			"target":34963
		},
		{
			"buffer":0,
			"byteLength":10728,
			"byteOffset":932208,
			"target":34962
		},
		{
			"buffer":0,
			"byteLength":10728,
			"byteOffset":942936,
			"target":34962
		},
		{
			"buffer":0,
			"byteLength":8808,
			"byteOffset":953664,
			"target":34963
		},
		{
			"buffer":0,
			"byteLength":4416,
			"byteOffset":962472,
			"target":34962
		},
		{
			"buffer":0,
			"byteLength":4416,
			"byteOffset":966888,
			"target":34962
		},
		{
			"buffer":0,
			"byteLength":2208,
			"byteOffset":971304,
			"target":34963
		},
		{
			"buffer":0,
			"byteLength":12024,
			"byteOffset":973512,
			"target":34962
		},
		{
			"buffer":0,
			"byteLength":12024,
			"byteOffset":985536,
			"target":34962
		},
		{
			"buffer":0,
			"byteLength":12024,
			"byteOffset":997560,
			"target":34963
		},
		{
			"buffer":0,
			"byteLength":12216,
			"byteOffset":1009584,
			"target":34962
		},
		{
			"buffer":0,
			"byteLength":12216,
			"byteOffset":1021800,
			"target":34962
		},
		{
			"buffer":0,
			"byteLength":8736,
			"byteOffset":1034016,
			"target":34963
		},
		{
			"buffer":0,
			"byteLength":12576,
			"byteOffset":1042752,
			"target":34962
		},
		{
			"buffer":0,
			"byteLength":12576,
			"byteOffset":1055328,
			"target":34962
		},
		{
			"buffer":0,
			"byteLength":2520,
			"byteOffset":1067904,
			"target":34963
		}
	],
	"buffers":[
		{
			"byteLength":1070424,
			"uri":"continent_exploded_smoothed.bin"
		}
	]
}
