{"scene":0,"asset":{"generator":"ImageToStl.com","version":"2.0"},"scenes":[{"name":"Scene","nodes":[0]}],"nodes":[{"name":"Node0","children":[1]},{"name":"Node1","children":[2,3,4,5,6,7,8,9,10]},{"name":"Separator","mesh":0},{"name":"Separator","mesh":1},{"name":"Separator","mesh":2},{"name":"Separator","mesh":3},{"name":"Separator","mesh":4},{"name":"Separator","mesh":5},{"name":"Separator","mesh":6},{"name":"Separator","mesh":7},{"name":"Separator","mesh":8}],"materials":[{"name":"z0","pbrMetallicRoughness":{"baseColorFactor":[0.792157,0.819608,0.933333,1.0],"metallicFactor":0.424183,"roughnessFactor":0.6875},"emissiveFactor":[0.0,0.0,0.0],"doubleSided":true},{"name":"z1","pbrMetallicRoughness":{"baseColorFactor":[1.0,1.0,1.0,0.5],"metallicFactor":0.5,"roughnessFactor":0.6875},"emissiveFactor":[0.0,0.0,0.0],"alphaMode":"BLEND","doubleSided":true},{"name":"z2","pbrMetallicRoughness":{"baseColorFactor":[1.0,1.0,1.0,0.5],"metallicFactor":0.5,"roughnessFactor":0.6875},"emissiveFactor":[0.0,0.0,0.0],"alphaMode":"BLEND","doubleSided":true},{"name":"z3","pbrMetallicRoughness":{"baseColorFactor":[0.792157,0.819608,0.933333,1.0],"metallicFactor":0.424183,"roughnessFactor":0.6875},"emissiveFactor":[0.0,0.0,0.0],"doubleSided":true},{"name":"z4","pbrMetallicRoughness":{"baseColorFactor":[0.752941,0.752941,0.752941,1.0],"metallicFactor":0.752941,"roughnessFactor":0.6875},"emissiveFactor":[0.0,0.0,0.0],"doubleSided":true},{"name":"z5","pbrMetallicRoughness":{"baseColorFactor":[0.501961,0.501961,0.501961,1.0],"metallicFactor":0.501961,"roughnessFactor":0.6875},"emissiveFactor":[0.0,0.0,0.0],"doubleSided":true},{"name":"z6","pbrMetallicRoughness":{"baseColorFactor":[0.2,0.2,0.2,1.0],"metallicFactor":0.2,"roughnessFactor":0.6875},"emissiveFactor":[0.0,0.0,0.0],"doubleSided":true},{"name":"z7","pbrMetallicRoughness":{"baseColorFactor":[0.968627,0.968627,0.968627,1.0],"metallicFactor":0.484314,"roughnessFactor":0.6875},"emissiveFactor":[0.0,0.0,0.0],"doubleSided":true},{"name":"z8","pbrMetallicRoughness":{"baseColorFactor":[0.0,0.564706,0.552941,1.0],"metallicFactor":0.18627466,"roughnessFactor":0.6875},"emissiveFactor":[0.0,0.0,0.0],"doubleSided":true}],"meshes":[{"name":"Mesh0","primitives":[{"indices":1,"material":0,"attributes":{"POSITION":0}}]},{"name":"Mesh0","primitives":[{"indices":3,"material":1,"attributes":{"POSITION":2}}]},{"name":"Mesh0","primitives":[{"indices":5,"material":2,"attributes":{"POSITION":4}}]},{"name":"Mesh0","primitives":[{"indices":7,"material":3,"attributes":{"POSITION":6}}]},{"name":"Mesh0","primitives":[{"indices":9,"material":4,"attributes":{"POSITION":8}}]},{"name":"Mesh0","primitives":[{"indices":11,"material":5,"attributes":{"POSITION":10}}]},{"name":"Mesh0","primitives":[{"indices":13,"material":6,"attributes":{"POSITION":12}}]},{"name":"Mesh0","primitives":[{"indices":15,"material":7,"attributes":{"POSITION":14}}]},{"name":"Mesh0","primitives":[{"indices":17,"material":8,"attributes":{"POSITION":16}}]}],"accessors":[{"bufferView":0,"componentType":5126,"count":6784,"type":"VEC3","min":[0.017882,-0.004108,0.017222],"max":[0.035382,0.059845,0.081193]},{"bufferView":1,"componentType":5123,"count":40704,"type":"SCALAR"},{"bufferView":2,"componentType":5126,"count":720,"type":"VEC3","min":[0.016882,-0.022181,-0.010684],"max":[0.022882,0.078003,0.109114]},{"bufferView":3,"componentType":5123,"count":4320,"type":"SCALAR"},{"bufferView":4,"componentType":5126,"count":210,"type":"VEC3","min":[0.022882,-0.00196,0.019368],"max":[0.023588,0.057697,0.079044]},{"bufferView":5,"componentType":5123,"count":1260,"type":"SCALAR"},{"bufferView":6,"componentType":5126,"count":320,"type":"VEC3","min":[0.034382,-0.061451,0.016703],"max":[0.047382,0.060376,0.081782]},{"bufferView":7,"componentType":5123,"count":1908,"type":"SCALAR"},{"bufferView":8,"componentType":5126,"count":5886,"type":"VEC3","min":[0.025382,-0.007067,0.015218],"max":[0.035382,0.06285,0.083187]},{"bufferView":9,"componentType":5123,"count":35406,"type":"SCALAR"},{"bufferView":10,"componentType":5126,"count":4674,"type":"VEC3","min":[0.027382,-0.010061,0.017203],"max":[0.036382,0.065844,0.081203]},{"bufferView":11,"componentType":5123,"count":28044,"type":"SCALAR"},{"bufferView":12,"componentType":5126,"count":5543,"type":"VEC3","min":[0.027382,-0.007109,0.014218],"max":[0.043381,0.06283,0.084187]},{"bufferView":13,"componentType":5123,"count":33258,"type":"SCALAR"},{"bufferView":14,"componentType":5126,"count":184,"type":"VEC3","min":[-0.041996,0.007404,0.028703],"max":[0.038004,0.048379,0.069703]},{"bufferView":15,"componentType":5123,"count":1104,"type":"SCALAR"},{"bufferView":16,"componentType":5126,"count":1002,"type":"VEC3","min":[-0.046895,0.005913,0.027222],"max":[-0.041996,0.049864,0.071169]},{"bufferView":17,"componentType":5123,"count":6012,"type":"SCALAR"}],"bufferViews":[{"target":34962,"buffer":0,"byteLength":81408,"byteOffset":0},{"target":34963,"buffer":0,"byteLength":81408,"byteOffset":81408},{"target":34962,"buffer":0,"byteLength":8640,"byteOffset":162816},{"target":34963,"buffer":0,"byteLength":8640,"byteOffset":171456},{"target":34962,"buffer":0,"byteLength":2520,"byteOffset":180096},{"target":34963,"buffer":0,"byteLength":2520,"byteOffset":182616},{"target":34962,"buffer":0,"byteLength":3840,"byteOffset":185136},{"target":34963,"buffer":0,"byteLength":3816,"byteOffset":188976},{"target":34962,"buffer":0,"byteLength":70632,"byteOffset":192792},{"target":34963,"buffer":0,"byteLength":70812,"byteOffset":263424},{"target":34962,"buffer":0,"byteLength":56088,"byteOffset":334236},{"target":34963,"buffer":0,"byteLength":56088,"byteOffset":390324},{"target":34962,"buffer":0,"byteLength":66516,"byteOffset":446412},{"target":34963,"buffer":0,"byteLength":66516,"byteOffset":512928},{"target":34962,"buffer":0,"byteLength":2208,"byteOffset":579444},{"target":34963,"buffer":0,"byteLength":2208,"byteOffset":581652},{"target":34962,"buffer":0,"byteLength":12024,"byteOffset":583860},{"target":34963,"buffer":0,"byteLength":12024,"byteOffset":595884}],"buffers":[{"byteLength":607908,"uri":"data:application/octet-stream;base64,"}]}